PathFileType	4	(X/Y/Z)	C:\Users\86182\Documents\cortex\Trimmed_M1_L16.trc
DataRate	CameraRate	NumFrames	NumMarkers	Units	OrigDataRate	OrigDataStartFrame	OrigNumFrames
100.00	100.00	       115	2	mm	100.00	1	       951
Frame#	Time	gripper			box			
		X1	Y1	Z1	X2	Y2	Z2	

1	0.000	228.64685	206.11870	182.63483	233.78511	205.44328	42.25980	
2	0.010	228.64328	206.11937	182.63583	233.76620	205.43457	42.26854	
3	0.020	228.63995	206.11986	182.63663	233.85962	205.48006	42.21271	
4	0.030	228.63713	206.12015	182.63712	233.82863	205.46289	42.24188	
5	0.040	228.63495	206.12027	182.63737	233.82736	205.46329	42.23744	
6	0.050	228.63326	206.12025	182.63745	233.78540	205.44325	42.26049	
7	0.060	228.63191	206.12016	182.63741	233.83968	205.46994	42.22670	
8	0.070	228.63068	206.12001	182.63730	233.91341	205.50566	42.18357	
9	0.080	228.62938	206.11980	182.63716	234.01457	205.55566	42.11930	
10	0.090	228.62807	206.11957	182.63707	233.73476	205.41933	42.28703	
11	0.100	228.62695	206.11940	182.63707	233.97810	205.53883	42.13634	
12	0.110	228.62640	206.11928	182.63718	233.86424	205.48299	42.20648	
13	0.120	228.62679	206.11917	182.63728	233.83394	205.46640	42.23401	
14	0.130	228.62860	206.11893	182.63715	233.81740	205.46233	42.22345	
15	0.140	228.63235	206.11842	182.63651	233.82582	205.46652	42.21788	
16	0.150	228.63843	206.11755	182.63521	233.87143	205.48381	42.21593	
17	0.160	228.64674	206.11636	182.63329	233.94035	205.51830	42.16994	
18	0.170	228.65652	206.11499	182.63098	233.97595	205.53380	42.15808	
19	0.180	228.66628	206.11357	182.62856	233.89938	205.49957	42.18815	
20	0.190	228.67424	206.11230	182.62630	233.76318	205.43236	42.27419	
21	0.200	228.67879	206.11143	182.62469	233.98317	205.53780	42.15128	
22	0.210	228.67856	206.11121	182.62416	233.94313	205.51854	42.17401	
23	0.220	228.67331	206.11172	182.62489	233.84386	205.47119	42.22830	
24	0.230	228.66447	206.11284	182.62662	233.89265	205.49831	42.18187	
25	0.240	228.65442	206.11423	182.62881	233.93414	205.51384	42.18106	
26	0.250	228.64534	206.11560	182.63097	233.85634	205.47792	42.21748	
27	0.260	228.63861	206.11668	182.63268	233.93758	205.51820	42.16517	
28	0.270	228.63464	206.11729	182.63365	233.84811	205.47296	42.22728	
29	0.280	228.63335	206.11739	182.63385	233.91245	205.50975	42.16073	
30	0.290	228.63441	206.11703	182.63335	233.97810	205.53883	42.13634	
31	0.300	228.63733	206.11639	182.63240	233.89502	205.49507	42.20295	
32	0.310	228.64117	206.11569	182.63132	233.95753	205.52554	42.16547	
33	0.320	228.64464	206.11514	182.63046	233.94930	205.52150	42.17054	
34	0.330	228.64659	206.11494	182.63011	233.87425	205.48622	42.20890	
35	0.340	228.64667	206.11510	182.63034	234.01469	205.55669	42.11422	
36	0.350	228.64520	206.11551	182.63100	233.90594	205.50092	42.19379	
37	0.360	228.64270	206.11603	182.63184	233.90948	205.50685	42.17001	
38	0.370	228.63976	206.11646	182.63263	234.10356	205.60123	42.05462	
39	0.380	228.63712	206.11668	182.63315	233.97430	205.53296	42.15926	
40	0.390	228.63571	206.11659	182.63319	233.92856	205.51656	42.15649	
41	0.400	228.63629	206.11621	182.63271	233.81331	205.45871	42.23422	
42	0.410	228.63908	206.11554	182.63167	233.81729	205.45879	42.24139	
43	0.420	228.64349	206.11470	182.63029	233.88084	205.49301	42.18660	
44	0.430	228.64810	206.11389	182.62895	233.78593	205.44707	42.24192	
45	0.440	228.65096	206.11337	182.62811	233.98825	205.54564	42.12066	
46	0.450	228.65102	206.11331	182.62805	233.98140	205.53938	42.13979	
47	0.460	228.64897	206.11363	182.62865	233.94989	205.52313	42.16330	
48	0.470	228.64624	206.11418	182.62962	233.76620	205.43462	42.26833	
49	0.480	228.64357	206.11490	182.63086	233.88466	205.49442	42.18660	
50	0.490	228.64113	206.11581	182.63232	233.84998	205.47383	42.22634	
51	0.500	228.63907	206.11691	182.63391	233.82698	205.46428	42.23163	
52	0.510	228.63768	206.11815	182.63553	233.93382	205.51364	42.18144	
53	0.520	228.63710	206.11938	182.63705	233.96652	205.53383	42.13997	
54	0.530	228.63722	206.12041	182.63828	233.90175	205.49881	42.19661	
55	0.540	228.63786	206.12094	182.63892	233.77403	205.43843	42.26368	
56	0.550	228.63895	206.12080	182.63873	233.79187	205.44788	42.24907	
57	0.560	228.64075	206.11998	182.63768	233.89259	205.49463	42.20066	
58	0.570	228.64383	206.11868	182.63588	233.75049	205.42697	42.27769	
59	0.580	228.64853	206.11716	182.63361	233.80908	205.45598	42.24024	
60	0.590	228.65440	206.11572	182.63130	233.86646	205.48227	42.21434	
61	0.600	228.66049	206.11465	182.62944	233.81778	205.46133	42.22926	
62	0.610	228.66614	206.11404	182.62817	233.77614	205.44023	42.25844	
63	0.620	228.67116	206.11377	182.62740	233.83104	205.46567	42.23222	
64	0.630	228.67476	206.11368	182.62700	233.75452	205.42827	42.27868	
65	0.640	228.67538	206.11372	182.62697	233.74515	205.42398	42.28291	
66	0.650	228.67207	206.11394	182.62738	233.79774	205.44995	42.24957	
67	0.660	228.66534	206.11436	182.62828	233.83990	205.47110	42.22118	
68	0.670	228.65688	206.11502	182.62958	233.87666	205.48668	42.21115	
69	0.680	228.64896	206.11584	182.63106	233.75133	205.42690	42.27972	
70	0.690	228.64352	206.11670	182.63243	233.79674	205.44901	42.25254	
71	0.700	228.64163	206.11746	182.63350	233.82739	205.46219	42.24313	
72	0.710	228.64326	206.11803	182.63412	233.84766	205.47383	42.22197	
73	0.720	228.64761	206.11833	182.63426	233.82945	205.46336	42.24104	
74	0.730	228.65323	206.11838	182.63402	233.76318	205.43236	42.27419	
75	0.740	228.65825	206.11827	182.63361	233.80232	205.45139	42.25094	
76	0.750	228.66118	206.11803	182.63316	233.84247	205.47076	42.22778	
77	0.760	228.66173	206.11763	182.63268	233.76776	205.43510	42.26877	
78	0.770	228.66066	206.11707	182.63206	233.71910	205.41171	42.29633	
79	0.780	228.65898	206.11641	182.63142	233.73476	205.41933	42.28703	
80	0.790	228.65730	206.11584	182.63089	233.83165	205.46584	42.23250	
81	0.800	228.65587	206.11551	182.63063	233.76852	205.43532	42.26919	
82	0.810	228.65500	206.11545	182.63068	233.75288	205.42775	42.27827	
83	0.820	228.65456	206.11565	182.63097	233.88351	205.49030	42.20556	
84	0.830	228.65367	206.11609	182.63152	233.72693	205.41553	42.29168	
85	0.840	228.65164	206.11670	182.63229	233.82307	205.46056	42.24332	
86	0.850	228.64876	206.11725	182.63304	233.79774	205.44995	42.24957	
87	0.860	228.64592	206.11757	182.63350	233.71127	205.40791	42.30098	
88	0.870	228.64380	206.11760	182.63364	233.81015	205.45518	42.24629	
89	0.880	228.64261	206.11748	182.63359	233.88161	205.49098	42.19846	
90	0.890	228.64207	206.11732	182.63358	233.89990	205.49831	42.19568	
91	0.900	228.64153	206.11731	182.63383	233.78896	205.44579	42.25428	
92	0.910	228.64026	206.11755	182.63455	233.81657	205.45859	42.24109	
93	0.920	228.63811	206.11804	182.63570	233.80933	205.45613	42.23988	
94	0.930	228.63554	206.11856	182.63689	233.72864	205.41609	42.29202	
95	0.940	228.63312	206.11888	182.63771	233.72778	205.41580	42.29185	
96	0.950	228.63112	206.11890	182.63794	233.83681	205.46672	42.23785	
97	0.960	228.62964	206.11867	182.63768	233.75452	205.42827	42.27868	
98	0.970	228.62880	206.11835	182.63722	233.83475	205.46828	42.22592	
99	0.980	228.62878	206.11801	182.63672	233.79442	205.44754	42.25563	
100	0.990	228.62962	206.11769	182.63622	233.89568	205.49547	42.20219	
101	1.000	228.63113	206.11737	182.63559	233.78146	205.44318	42.25340	
102	1.010	228.63263	206.11705	182.63486	233.77380	205.43950	42.25776	
103	1.020	228.63324	206.11679	182.63417	233.75288	205.42775	42.27827	
104	1.030	228.63261	206.11668	182.63373	233.79294	205.44710	42.25515	
105	1.040	228.63118	206.11671	182.63356	233.80946	205.45499	42.24604	
106	1.050	228.62971	206.11687	182.63362	233.77170	205.43637	42.26979	
107	1.060	228.62878	206.11711	182.63385	233.78743	205.44366	42.26231	
108	1.070	228.62875	206.11742	182.63416	233.80084	205.45093	42.25046	
109	1.080	228.62982	206.11772	182.63446	233.82805	205.46350	42.23769	
110	1.090	228.63191	206.11798	182.63467	233.77403	205.43843	42.26368	
111	1.100	228.63484	206.11809	182.63467	233.72864	205.41609	42.29202	
112	1.110	228.63824	206.11798	182.63443	233.72992	205.41769	42.28621	
113	1.120	228.64162	206.11774	182.63397	233.76071	205.43155	42.27362	
114	1.130	228.64423	206.11743	182.63351	233.74258	205.42313	42.28238	
115	1.140	228.64542	206.11723	182.63324	233.75916	205.43069	42.27507	
